<svg width="40" height="40" viewBox="0 0 40 40" fill="none" xmlns="http://www.w3.org/2000/svg">
<path d="M5.85076 9.9586C4.71641 8.82425 4.71641 6.98511 5.85076 5.85076C6.98511 4.71641 8.82425 4.71641 9.9586 5.85076L34.1492 30.0414C35.2836 31.1757 35.2836 33.0149 34.1492 34.1492C33.0149 35.2836 31.1757 35.2836 30.0414 34.1492L5.85076 9.9586Z" fill="#fc5e5e"/>
<path d="M9.95863 34.1492C8.82429 35.2836 6.98514 35.2836 5.8508 34.1492C4.71645 33.0149 4.71645 31.1757 5.85079 30.0414L30.0414 5.85077C31.1757 4.71642 33.0149 4.71642 34.1492 5.85077C35.2836 6.98512 35.2836 8.82426 34.1492 9.95861L9.95863 34.1492Z" fill="#fc5e5e"/>
</svg>
